<mxfile host="app.diagrams.net" modified="2021-03-18T15:49:43.013Z" agent="5.0 (Windows)" etag="g2Eox2EOVw6RuZw_Biii" version="14.4.8" type="github" pages="2">
  <diagram id="5c0vTmHrscncdPuWYxD0" name="Page-1">
    <mxGraphModel dx="3144" dy="5247" grid="1" gridSize="10" guides="1" tooltips="1" connect="1" arrows="1" fold="1" page="1" pageScale="1" pageWidth="1654" pageHeight="2336" math="0" shadow="0">
      <root>
        <mxCell id="0" />
        <mxCell id="1" parent="0" />
        <mxCell id="5-MKXrLHc6Z83awF3s98-9" value="" style="rounded=0;whiteSpace=wrap;html=1;fillColor=#333333;" parent="1" vertex="1">
          <mxGeometry x="-327.5" y="-20" width="717.5" height="310" as="geometry" />
        </mxCell>
        <mxCell id="5-MKXrLHc6Z83awF3s98-6" value="" style="rounded=0;whiteSpace=wrap;html=1;fillColor=#333333;" parent="1" vertex="1">
          <mxGeometry x="-360" y="-1976.5" width="720" height="70" as="geometry" />
        </mxCell>
        <mxCell id="LzeXuOooPPnK6IAznrLY-8" value="" style="rounded=1;whiteSpace=wrap;html=1;fillColor=#000000;arcSize=2;align=left;" parent="1" vertex="1">
          <mxGeometry x="-520" y="-1180" width="500" height="1010" as="geometry" />
        </mxCell>
        <mxCell id="LzeXuOooPPnK6IAznrLY-1" value="" style="rounded=0;whiteSpace=wrap;html=1;align=left;" parent="1" vertex="1">
          <mxGeometry x="-105" y="-1540" width="240" height="60" as="geometry" />
        </mxCell>
        <mxCell id="LzeXuOooPPnK6IAznrLY-2" value="" style="aspect=fixed;html=1;points=[];align=left;image;fontSize=12;image=img/lib/mscae/VM_Windows_Non_Azure.svg;" parent="1" vertex="1">
          <mxGeometry x="-375" y="-1380" width="130.43" height="120" as="geometry" />
        </mxCell>
        <mxCell id="LzeXuOooPPnK6IAznrLY-3" value="" style="aspect=fixed;html=1;points=[];align=left;image;fontSize=12;image=img/lib/mscae/VM_Linux.svg;" parent="1" vertex="1">
          <mxGeometry x="-85" y="-1390" width="141.3" height="130" as="geometry" />
        </mxCell>
        <mxCell id="LzeXuOooPPnK6IAznrLY-4" value="" style="pointerEvents=1;shadow=0;dashed=0;html=1;strokeColor=none;fillColor=#505050;labelPosition=center;verticalLabelPosition=bottom;verticalAlign=top;outlineConnect=0;align=left;shape=mxgraph.office.devices.mac_client;" parent="1" vertex="1">
          <mxGeometry x="202" y="-1370" width="160" height="124" as="geometry" />
        </mxCell>
        <mxCell id="LzeXuOooPPnK6IAznrLY-5" value="&lt;div style=&quot;font-size: 15px&quot;&gt;&lt;font style=&quot;font-size: 15px&quot; color=&quot;#E1D5E7&quot;&gt;Generators&lt;/font&gt;&lt;/div&gt;&lt;div style=&quot;font-size: 15px&quot;&gt;&lt;font style=&quot;font-size: 15px&quot; color=&quot;#E1D5E7&quot;&gt;&lt;br&gt;&lt;/font&gt;&lt;/div&gt;&lt;div style=&quot;font-size: 15px&quot;&gt;&lt;font style=&quot;font-size: 15px&quot; color=&quot;#E1D5E7&quot;&gt;The following generators are available on this platform (* marks default):&lt;br&gt;* Visual Studio 16 2019&amp;nbsp;&amp;nbsp;&amp;nbsp;&amp;nbsp;&amp;nbsp;&amp;nbsp;&amp;nbsp; = Generates Visual Studio 2019 project files.&lt;br&gt;&amp;nbsp;&amp;nbsp;&amp;nbsp;&amp;nbsp;&amp;nbsp;&amp;nbsp;&amp;nbsp;&amp;nbsp;&amp;nbsp;&amp;nbsp;&amp;nbsp;&amp;nbsp;&amp;nbsp;&amp;nbsp;&amp;nbsp;&amp;nbsp;&amp;nbsp;&amp;nbsp;&amp;nbsp;&amp;nbsp;&amp;nbsp;&amp;nbsp;&amp;nbsp;&amp;nbsp;&amp;nbsp;&amp;nbsp;&amp;nbsp;&amp;nbsp;&amp;nbsp;&amp;nbsp;&amp;nbsp;&amp;nbsp; Use -A option to specify architecture.&lt;br&gt;&amp;nbsp; Visual Studio 15 2017 [arch] = Generates Visual Studio 2017 project files.&lt;br&gt;&amp;nbsp;&amp;nbsp;&amp;nbsp;&amp;nbsp;&amp;nbsp;&amp;nbsp;&amp;nbsp;&amp;nbsp;&amp;nbsp;&amp;nbsp;&amp;nbsp;&amp;nbsp;&amp;nbsp;&amp;nbsp;&amp;nbsp;&amp;nbsp;&amp;nbsp;&amp;nbsp;&amp;nbsp;&amp;nbsp;&amp;nbsp;&amp;nbsp;&amp;nbsp;&amp;nbsp;&amp;nbsp;&amp;nbsp;&amp;nbsp;&amp;nbsp;&amp;nbsp;&amp;nbsp;&amp;nbsp;&amp;nbsp; Optional [arch] can be &quot;Win64&quot; or &quot;ARM&quot;.&lt;br&gt;&amp;nbsp; Visual Studio 14 2015 [arch] = Generates Visual Studio 2015 project files.&lt;br&gt;&amp;nbsp;&amp;nbsp;&amp;nbsp;&amp;nbsp;&amp;nbsp;&amp;nbsp;&amp;nbsp;&amp;nbsp;&amp;nbsp;&amp;nbsp;&amp;nbsp;&amp;nbsp;&amp;nbsp;&amp;nbsp;&amp;nbsp;&amp;nbsp;&amp;nbsp;&amp;nbsp;&amp;nbsp;&amp;nbsp;&amp;nbsp;&amp;nbsp;&amp;nbsp;&amp;nbsp;&amp;nbsp;&amp;nbsp;&amp;nbsp;&amp;nbsp;&amp;nbsp;&amp;nbsp;&amp;nbsp;&amp;nbsp; Optional [arch] can be &quot;Win64&quot; or &quot;ARM&quot;.&lt;br&gt;&amp;nbsp; Visual Studio 12 2013 [arch] = Generates Visual Studio 2013 project files.&lt;br&gt;&amp;nbsp;&amp;nbsp;&amp;nbsp;&amp;nbsp;&amp;nbsp;&amp;nbsp;&amp;nbsp;&amp;nbsp;&amp;nbsp;&amp;nbsp;&amp;nbsp;&amp;nbsp;&amp;nbsp;&amp;nbsp;&amp;nbsp;&amp;nbsp;&amp;nbsp;&amp;nbsp;&amp;nbsp;&amp;nbsp;&amp;nbsp;&amp;nbsp;&amp;nbsp;&amp;nbsp;&amp;nbsp;&amp;nbsp;&amp;nbsp;&amp;nbsp;&amp;nbsp;&amp;nbsp;&amp;nbsp;&amp;nbsp; Optional [arch] can be &quot;Win64&quot; or &quot;ARM&quot;.&lt;br&gt;&amp;nbsp; Visual Studio 11 2012 [arch] = Generates Visual Studio 2012 project files.&lt;br&gt;&amp;nbsp;&amp;nbsp;&amp;nbsp;&amp;nbsp;&amp;nbsp;&amp;nbsp;&amp;nbsp;&amp;nbsp;&amp;nbsp;&amp;nbsp;&amp;nbsp;&amp;nbsp;&amp;nbsp;&amp;nbsp;&amp;nbsp;&amp;nbsp;&amp;nbsp;&amp;nbsp;&amp;nbsp;&amp;nbsp;&amp;nbsp;&amp;nbsp;&amp;nbsp;&amp;nbsp;&amp;nbsp;&amp;nbsp;&amp;nbsp;&amp;nbsp;&amp;nbsp;&amp;nbsp;&amp;nbsp;&amp;nbsp; Optional [arch] can be &quot;Win64&quot; or &quot;ARM&quot;.&lt;br&gt;&amp;nbsp; Visual Studio 10 2010 [arch] = Generates Visual Studio 2010 project files.&lt;br&gt;&amp;nbsp;&amp;nbsp;&amp;nbsp;&amp;nbsp;&amp;nbsp;&amp;nbsp;&amp;nbsp;&amp;nbsp;&amp;nbsp;&amp;nbsp;&amp;nbsp;&amp;nbsp;&amp;nbsp;&amp;nbsp;&amp;nbsp;&amp;nbsp;&amp;nbsp;&amp;nbsp;&amp;nbsp;&amp;nbsp;&amp;nbsp;&amp;nbsp;&amp;nbsp;&amp;nbsp;&amp;nbsp;&amp;nbsp;&amp;nbsp;&amp;nbsp;&amp;nbsp;&amp;nbsp;&amp;nbsp;&amp;nbsp; Optional [arch] can be &quot;Win64&quot; or &quot;IA64&quot;.&lt;br&gt;&amp;nbsp; Visual Studio 9 2008 [arch]&amp;nbsp; = Generates Visual Studio 2008 project files.&lt;br&gt;&amp;nbsp;&amp;nbsp;&amp;nbsp;&amp;nbsp;&amp;nbsp;&amp;nbsp;&amp;nbsp;&amp;nbsp;&amp;nbsp;&amp;nbsp;&amp;nbsp;&amp;nbsp;&amp;nbsp;&amp;nbsp;&amp;nbsp;&amp;nbsp;&amp;nbsp;&amp;nbsp;&amp;nbsp;&amp;nbsp;&amp;nbsp;&amp;nbsp;&amp;nbsp;&amp;nbsp;&amp;nbsp;&amp;nbsp;&amp;nbsp;&amp;nbsp;&amp;nbsp;&amp;nbsp;&amp;nbsp;&amp;nbsp; Optional [arch] can be &quot;Win64&quot; or &quot;IA64&quot;.&lt;br&gt;&amp;nbsp; Borland Makefiles&amp;nbsp;&amp;nbsp;&amp;nbsp;&amp;nbsp;&amp;nbsp;&amp;nbsp;&amp;nbsp;&amp;nbsp;&amp;nbsp;&amp;nbsp;&amp;nbsp; = Generates Borland makefiles.&lt;br&gt;&amp;nbsp; NMake Makefiles&amp;nbsp;&amp;nbsp;&amp;nbsp;&amp;nbsp;&amp;nbsp;&amp;nbsp;&amp;nbsp;&amp;nbsp;&amp;nbsp;&amp;nbsp;&amp;nbsp;&amp;nbsp;&amp;nbsp; = Generates NMake makefiles.&lt;br&gt;&amp;nbsp; NMake Makefiles JOM&amp;nbsp;&amp;nbsp;&amp;nbsp;&amp;nbsp;&amp;nbsp;&amp;nbsp;&amp;nbsp;&amp;nbsp;&amp;nbsp; = Generates JOM makefiles.&lt;br&gt;&amp;nbsp; MSYS Makefiles&amp;nbsp;&amp;nbsp;&amp;nbsp;&amp;nbsp;&amp;nbsp;&amp;nbsp;&amp;nbsp;&amp;nbsp;&amp;nbsp;&amp;nbsp;&amp;nbsp;&amp;nbsp;&amp;nbsp;&amp;nbsp; = Generates MSYS makefiles.&lt;br&gt;&amp;nbsp; MinGW Makefiles&amp;nbsp;&amp;nbsp;&amp;nbsp;&amp;nbsp;&amp;nbsp;&amp;nbsp;&amp;nbsp;&amp;nbsp;&amp;nbsp;&amp;nbsp;&amp;nbsp;&amp;nbsp;&amp;nbsp; = Generates a make file for use with&lt;br&gt;&amp;nbsp;&amp;nbsp;&amp;nbsp;&amp;nbsp;&amp;nbsp;&amp;nbsp;&amp;nbsp;&amp;nbsp;&amp;nbsp;&amp;nbsp;&amp;nbsp;&amp;nbsp;&amp;nbsp;&amp;nbsp;&amp;nbsp;&amp;nbsp;&amp;nbsp;&amp;nbsp;&amp;nbsp;&amp;nbsp;&amp;nbsp;&amp;nbsp;&amp;nbsp;&amp;nbsp;&amp;nbsp;&amp;nbsp;&amp;nbsp;&amp;nbsp;&amp;nbsp;&amp;nbsp;&amp;nbsp;&amp;nbsp; mingw32-make.&lt;br&gt;&amp;nbsp; Green Hills MULTI&amp;nbsp;&amp;nbsp;&amp;nbsp;&amp;nbsp;&amp;nbsp;&amp;nbsp;&amp;nbsp;&amp;nbsp;&amp;nbsp;&amp;nbsp;&amp;nbsp; = Generates Green Hills MULTI files&lt;br&gt;&amp;nbsp;&amp;nbsp;&amp;nbsp;&amp;nbsp;&amp;nbsp;&amp;nbsp;&amp;nbsp;&amp;nbsp;&amp;nbsp;&amp;nbsp;&amp;nbsp;&amp;nbsp;&amp;nbsp;&amp;nbsp;&amp;nbsp;&amp;nbsp;&amp;nbsp;&amp;nbsp;&amp;nbsp;&amp;nbsp;&amp;nbsp;&amp;nbsp;&amp;nbsp;&amp;nbsp;&amp;nbsp;&amp;nbsp;&amp;nbsp;&amp;nbsp;&amp;nbsp;&amp;nbsp;&amp;nbsp;&amp;nbsp; (experimental, work-in-progress).&lt;br&gt;&amp;nbsp; Unix Makefiles&amp;nbsp;&amp;nbsp;&amp;nbsp;&amp;nbsp;&amp;nbsp;&amp;nbsp;&amp;nbsp;&amp;nbsp;&amp;nbsp;&amp;nbsp;&amp;nbsp;&amp;nbsp;&amp;nbsp;&amp;nbsp; = Generates standard UNIX makefiles.&lt;br&gt;&amp;nbsp; Ninja&amp;nbsp;&amp;nbsp;&amp;nbsp;&amp;nbsp;&amp;nbsp;&amp;nbsp;&amp;nbsp;&amp;nbsp;&amp;nbsp;&amp;nbsp;&amp;nbsp;&amp;nbsp;&amp;nbsp;&amp;nbsp;&amp;nbsp;&amp;nbsp;&amp;nbsp;&amp;nbsp;&amp;nbsp;&amp;nbsp;&amp;nbsp;&amp;nbsp;&amp;nbsp; = Generates build.ninja files.&lt;br&gt;&amp;nbsp; Ninja Multi-Config&amp;nbsp;&amp;nbsp;&amp;nbsp;&amp;nbsp;&amp;nbsp;&amp;nbsp;&amp;nbsp;&amp;nbsp;&amp;nbsp;&amp;nbsp; = Generates build-&amp;lt;Config&amp;gt;.ninja files.&lt;br&gt;&amp;nbsp; Watcom WMake&amp;nbsp;&amp;nbsp;&amp;nbsp;&amp;nbsp;&amp;nbsp;&amp;nbsp;&amp;nbsp;&amp;nbsp;&amp;nbsp;&amp;nbsp;&amp;nbsp;&amp;nbsp;&amp;nbsp;&amp;nbsp;&amp;nbsp;&amp;nbsp; = Generates Watcom WMake makefiles.&lt;br&gt;&amp;nbsp; CodeBlocks - MinGW Makefiles = Generates CodeBlocks project files.&lt;br&gt;&amp;nbsp; CodeBlocks - NMake Makefiles = Generates CodeBlocks project files.&lt;br&gt;&amp;nbsp; CodeBlocks - NMake Makefiles JOM&lt;br&gt;&amp;nbsp;&amp;nbsp;&amp;nbsp;&amp;nbsp;&amp;nbsp;&amp;nbsp;&amp;nbsp;&amp;nbsp;&amp;nbsp;&amp;nbsp;&amp;nbsp;&amp;nbsp;&amp;nbsp;&amp;nbsp;&amp;nbsp;&amp;nbsp;&amp;nbsp;&amp;nbsp;&amp;nbsp;&amp;nbsp;&amp;nbsp;&amp;nbsp;&amp;nbsp;&amp;nbsp;&amp;nbsp;&amp;nbsp;&amp;nbsp;&amp;nbsp;&amp;nbsp;&amp;nbsp; = Generates CodeBlocks project files.&lt;br&gt;&amp;nbsp; CodeBlocks - Ninja&amp;nbsp;&amp;nbsp;&amp;nbsp;&amp;nbsp;&amp;nbsp;&amp;nbsp;&amp;nbsp;&amp;nbsp;&amp;nbsp;&amp;nbsp; = Generates CodeBlocks project files.&lt;br&gt;&amp;nbsp; CodeBlocks - Unix Makefiles&amp;nbsp; = Generates CodeBlocks project files.&lt;br&gt;&amp;nbsp; CodeLite - MinGW Makefiles&amp;nbsp;&amp;nbsp; = Generates CodeLite project files.&lt;br&gt;&amp;nbsp; CodeLite - NMake Makefiles&amp;nbsp;&amp;nbsp; = Generates CodeLite project files.&lt;br&gt;&amp;nbsp; CodeLite - Ninja&amp;nbsp;&amp;nbsp;&amp;nbsp;&amp;nbsp;&amp;nbsp;&amp;nbsp;&amp;nbsp;&amp;nbsp;&amp;nbsp;&amp;nbsp;&amp;nbsp;&amp;nbsp; = Generates CodeLite project files.&lt;br&gt;&amp;nbsp; CodeLite - Unix Makefiles&amp;nbsp;&amp;nbsp;&amp;nbsp; = Generates CodeLite project files.&lt;br&gt;&amp;nbsp; Eclipse CDT4 - NMake Makefiles&lt;br&gt;&amp;nbsp;&amp;nbsp;&amp;nbsp;&amp;nbsp;&amp;nbsp;&amp;nbsp;&amp;nbsp;&amp;nbsp;&amp;nbsp;&amp;nbsp;&amp;nbsp;&amp;nbsp;&amp;nbsp;&amp;nbsp;&amp;nbsp;&amp;nbsp;&amp;nbsp;&amp;nbsp;&amp;nbsp;&amp;nbsp;&amp;nbsp;&amp;nbsp;&amp;nbsp;&amp;nbsp;&amp;nbsp;&amp;nbsp;&amp;nbsp;&amp;nbsp;&amp;nbsp;&amp;nbsp; = Generates Eclipse CDT 4.0 project files.&lt;/font&gt;&lt;/div&gt;" style="text;html=1;strokeColor=none;fillColor=none;align=left;verticalAlign=middle;whiteSpace=wrap;rounded=0;" parent="1" vertex="1">
          <mxGeometry x="-500" y="-1000" width="450" height="630" as="geometry" />
        </mxCell>
        <mxCell id="LzeXuOooPPnK6IAznrLY-6" value="" style="ellipse;whiteSpace=wrap;html=1;aspect=fixed;fillColor=#B3B3B3;align=left;" parent="1" vertex="1">
          <mxGeometry x="-435" y="-1600" width="150" height="150" as="geometry" />
        </mxCell>
        <mxCell id="LzeXuOooPPnK6IAznrLY-7" value="" style="shape=image;html=1;verticalAlign=top;verticalLabelPosition=bottom;labelBackgroundColor=#ffffff;imageAspect=0;aspect=fixed;image=https://cdn4.iconfinder.com/data/icons/logos-brands-5/24/cmake-128.png;fillColor=#333333;align=left;" parent="1" vertex="1">
          <mxGeometry x="-399" y="-1569" width="78" height="78" as="geometry" />
        </mxCell>
        <mxCell id="LzeXuOooPPnK6IAznrLY-9" value="" style="rounded=1;whiteSpace=wrap;html=1;fillColor=#000000;arcSize=2;align=left;" parent="1" vertex="1">
          <mxGeometry x="35" y="-1180" width="540" height="600" as="geometry" />
        </mxCell>
        <mxCell id="LzeXuOooPPnK6IAznrLY-10" value="&lt;font style=&quot;font-size: 15px&quot; color=&quot;#FFFFFF&quot;&gt;Generators&lt;br&gt;&lt;br&gt;The following generators are available on this platform (* marks default):&lt;br&gt;* Unix Makefiles&amp;nbsp;&amp;nbsp;&amp;nbsp;&amp;nbsp;&amp;nbsp;&amp;nbsp;&amp;nbsp;&amp;nbsp;&amp;nbsp;&amp;nbsp;&amp;nbsp;&amp;nbsp;&amp;nbsp;&amp;nbsp; = Generates standard UNIX makefiles.&lt;br&gt;&amp;nbsp; Green Hills MULTI&amp;nbsp;&amp;nbsp;&amp;nbsp;&amp;nbsp;&amp;nbsp;&amp;nbsp;&amp;nbsp;&amp;nbsp;&amp;nbsp;&amp;nbsp;&amp;nbsp; = Generates Green Hills MULTI files&lt;br&gt;&amp;nbsp;&amp;nbsp;&amp;nbsp;&amp;nbsp;&amp;nbsp;&amp;nbsp;&amp;nbsp;&amp;nbsp;&amp;nbsp;&amp;nbsp;&amp;nbsp;&amp;nbsp;&amp;nbsp;&amp;nbsp;&amp;nbsp;&amp;nbsp;&amp;nbsp;&amp;nbsp;&amp;nbsp;&amp;nbsp;&amp;nbsp;&amp;nbsp;&amp;nbsp;&amp;nbsp;&amp;nbsp;&amp;nbsp;&amp;nbsp;&amp;nbsp;&amp;nbsp;&amp;nbsp;&amp;nbsp;&amp;nbsp; (experimental, work-in-progress).&lt;br&gt;&amp;nbsp; Ninja&amp;nbsp;&amp;nbsp;&amp;nbsp;&amp;nbsp;&amp;nbsp;&amp;nbsp;&amp;nbsp;&amp;nbsp;&amp;nbsp;&amp;nbsp;&amp;nbsp;&amp;nbsp;&amp;nbsp;&amp;nbsp;&amp;nbsp;&amp;nbsp;&amp;nbsp;&amp;nbsp;&amp;nbsp;&amp;nbsp;&amp;nbsp;&amp;nbsp;&amp;nbsp; = Generates build.ninja files.&lt;br&gt;&amp;nbsp; Watcom WMake&amp;nbsp;&amp;nbsp;&amp;nbsp;&amp;nbsp;&amp;nbsp;&amp;nbsp;&amp;nbsp;&amp;nbsp;&amp;nbsp;&amp;nbsp;&amp;nbsp;&amp;nbsp;&amp;nbsp;&amp;nbsp;&amp;nbsp;&amp;nbsp; = Generates Watcom WMake makefiles.&lt;br&gt;&amp;nbsp; CodeBlocks - Ninja&amp;nbsp;&amp;nbsp;&amp;nbsp;&amp;nbsp;&amp;nbsp;&amp;nbsp;&amp;nbsp;&amp;nbsp;&amp;nbsp;&amp;nbsp; = Generates CodeBlocks project files.&lt;br&gt;&amp;nbsp; CodeBlocks - Unix Makefiles&amp;nbsp; = Generates CodeBlocks project files.&lt;br&gt;&amp;nbsp; CodeLite - Ninja&amp;nbsp;&amp;nbsp;&amp;nbsp;&amp;nbsp;&amp;nbsp;&amp;nbsp;&amp;nbsp;&amp;nbsp;&amp;nbsp;&amp;nbsp;&amp;nbsp;&amp;nbsp; = Generates CodeLite project files.&lt;br&gt;&amp;nbsp; CodeLite - Unix Makefiles&amp;nbsp;&amp;nbsp;&amp;nbsp; = Generates CodeLite project files.&lt;br&gt;&amp;nbsp; Sublime Text 2 - Ninja&amp;nbsp;&amp;nbsp;&amp;nbsp;&amp;nbsp;&amp;nbsp;&amp;nbsp; = Generates Sublime Text 2 project files.&lt;br&gt;&amp;nbsp; Sublime Text 2 - Unix Makefiles&lt;br&gt;&amp;nbsp;&amp;nbsp;&amp;nbsp;&amp;nbsp;&amp;nbsp;&amp;nbsp;&amp;nbsp;&amp;nbsp;&amp;nbsp;&amp;nbsp;&amp;nbsp;&amp;nbsp;&amp;nbsp;&amp;nbsp;&amp;nbsp;&amp;nbsp;&amp;nbsp;&amp;nbsp;&amp;nbsp;&amp;nbsp;&amp;nbsp;&amp;nbsp;&amp;nbsp;&amp;nbsp;&amp;nbsp;&amp;nbsp;&amp;nbsp;&amp;nbsp;&amp;nbsp;&amp;nbsp; = Generates Sublime Text 2 project files.&lt;br&gt;&amp;nbsp; Kate - Ninja&amp;nbsp;&amp;nbsp;&amp;nbsp;&amp;nbsp;&amp;nbsp;&amp;nbsp;&amp;nbsp;&amp;nbsp;&amp;nbsp;&amp;nbsp;&amp;nbsp;&amp;nbsp;&amp;nbsp;&amp;nbsp;&amp;nbsp;&amp;nbsp; = Generates Kate project files.&lt;br&gt;&amp;nbsp; Kate - Unix Makefiles&amp;nbsp;&amp;nbsp;&amp;nbsp;&amp;nbsp;&amp;nbsp;&amp;nbsp;&amp;nbsp; = Generates Kate project files.&lt;br&gt;&amp;nbsp; Eclipse CDT4 - Ninja&amp;nbsp;&amp;nbsp;&amp;nbsp;&amp;nbsp;&amp;nbsp;&amp;nbsp;&amp;nbsp;&amp;nbsp; = Generates Eclipse CDT 4.0 project files.&lt;br&gt;&amp;nbsp; Eclipse CDT4 - Unix Makefiles= Generates Eclipse CDT 4.0 project files.&lt;/font&gt;" style="text;html=1;strokeColor=none;fillColor=none;align=left;verticalAlign=middle;whiteSpace=wrap;rounded=0;" parent="1" vertex="1">
          <mxGeometry x="56.299999999999955" y="-1000" width="518.7" height="20" as="geometry" />
        </mxCell>
        <mxCell id="LzeXuOooPPnK6IAznrLY-11" value="&lt;font style=&quot;font-size: 21px&quot;&gt;CMakeLists.txt&lt;/font&gt;" style="text;html=1;strokeColor=none;fillColor=none;align=center;verticalAlign=middle;whiteSpace=wrap;rounded=0;" parent="1" vertex="1">
          <mxGeometry x="-50" y="-1515" width="130" height="10" as="geometry" />
        </mxCell>
        <mxCell id="5-MKXrLHc6Z83awF3s98-1" value="&lt;div align=&quot;left&quot;&gt;&lt;ul style=&quot;font-size: 21px&quot;&gt;&lt;li&gt;&lt;font style=&quot;font-size: 21px&quot; color=&quot;#C4C4C4&quot;&gt;Concepts&lt;/font&gt;&lt;/li&gt;&lt;li&gt;&lt;font style=&quot;font-size: 21px&quot; color=&quot;#C4C4C4&quot;&gt;Compilation on terminal&lt;/font&gt;&lt;/li&gt;&lt;li&gt;&lt;div&gt;&lt;font style=&quot;font-size: 21px&quot; color=&quot;#C4C4C4&quot;&gt;Scripts (bash,python,batch)&lt;/font&gt;&lt;/div&gt;&lt;/li&gt;&lt;li&gt;&lt;font style=&quot;font-size: 21px&quot; color=&quot;#C4C4C4&quot;&gt;Build systems (msbuild, makefiles, XCode Generator,...)&lt;/font&gt;&lt;/li&gt;&lt;li&gt;&lt;font style=&quot;font-size: 21px&quot; color=&quot;#C4C4C4&quot;&gt;CMake is a Meta Build System&lt;/font&gt;&lt;/li&gt;&lt;li&gt;&lt;font style=&quot;font-size: 21px&quot; color=&quot;#C4C4C4&quot;&gt;Installing CMake&lt;/font&gt;&lt;/li&gt;&lt;li&gt;&lt;font style=&quot;font-size: 21px&quot; color=&quot;#C4C4C4&quot;&gt;Goals &lt;br&gt;&lt;/font&gt;&lt;/li&gt;&lt;li&gt;&lt;font style=&quot;font-size: 21px&quot; color=&quot;#C4C4C4&quot;&gt;Cross platform app dev with C++ and CMake&lt;/font&gt;&lt;/li&gt;&lt;li&gt;&lt;font style=&quot;font-size: 21px&quot; color=&quot;#C4C4C4&quot;&gt;Tools : VSCode, on Windows and Linux&lt;br&gt;&lt;/font&gt;&lt;/li&gt;&lt;/ul&gt;&lt;font style=&quot;font-size: 21px&quot; color=&quot;#C4C4C4&quot;&gt;&lt;br&gt;&lt;/font&gt;&lt;/div&gt;" style="text;html=1;strokeColor=none;fillColor=none;align=left;verticalAlign=middle;whiteSpace=wrap;rounded=0;" parent="1" vertex="1">
          <mxGeometry x="-289.99999999999994" y="30" width="625" height="240" as="geometry" />
        </mxCell>
        <mxCell id="5-MKXrLHc6Z83awF3s98-2" value="" style="verticalLabelPosition=bottom;html=1;verticalAlign=top;align=center;strokeColor=none;fillColor=#00BEF2;shape=mxgraph.azure.visual_studio_online;" parent="1" vertex="1">
          <mxGeometry x="-318.78" y="-2172" width="140" height="110" as="geometry" />
        </mxCell>
        <mxCell id="5-MKXrLHc6Z83awF3s98-3" value="" style="shadow=0;dashed=0;html=1;strokeColor=none;fillColor=#EF8F21;labelPosition=center;verticalLabelPosition=bottom;verticalAlign=top;align=center;outlineConnect=0;shape=mxgraph.veeam.linux;" parent="1" vertex="1">
          <mxGeometry x="-61.78" y="-2175.5" width="130" height="117" as="geometry" />
        </mxCell>
        <mxCell id="5-MKXrLHc6Z83awF3s98-4" value="" style="shape=image;html=1;verticalAlign=top;verticalLabelPosition=bottom;labelBackgroundColor=#ffffff;imageAspect=0;aspect=fixed;image=https://cdn2.iconfinder.com/data/icons/isuite/PNG/XCode.png" parent="1" vertex="1">
          <mxGeometry x="190.78999999999994" y="-2190" width="128" height="128" as="geometry" />
        </mxCell>
        <mxCell id="5-MKXrLHc6Z83awF3s98-5" value="&lt;font style=&quot;font-size: 22px&quot; color=&quot;#FFFFFF&quot;&gt;cl.exe /Zi /std:c++latest /EHsc /Fe: rooster.exe main.cpp&amp;nbsp;&amp;nbsp; &lt;/font&gt;" style="text;html=1;strokeColor=none;fillColor=none;align=center;verticalAlign=middle;whiteSpace=wrap;rounded=0;" parent="1" vertex="1">
          <mxGeometry x="-327.5" y="-1951.5" width="655" height="20" as="geometry" />
        </mxCell>
        <mxCell id="5-MKXrLHc6Z83awF3s98-7" value="" style="rounded=0;whiteSpace=wrap;html=1;fillColor=#333333;" parent="1" vertex="1">
          <mxGeometry x="-352.5" y="-1836.5" width="720" height="70" as="geometry" />
        </mxCell>
        <mxCell id="5-MKXrLHc6Z83awF3s98-8" value="&lt;font style=&quot;font-size: 22px&quot; color=&quot;#FFFFFF&quot;&gt;g++ -g -std=c++20 main.cpp -o rooster&lt;/font&gt;" style="text;html=1;strokeColor=none;fillColor=none;align=center;verticalAlign=middle;whiteSpace=wrap;rounded=0;" parent="1" vertex="1">
          <mxGeometry x="-284.93000000000006" y="-1811.5" width="505" height="20" as="geometry" />
        </mxCell>
        <mxCell id="5-MKXrLHc6Z83awF3s98-10" value="" style="ellipse;whiteSpace=wrap;html=1;aspect=fixed;fillColor=#333333;" parent="1" vertex="1">
          <mxGeometry x="-61.78" y="-2340" width="116" height="116" as="geometry" />
        </mxCell>
        <mxCell id="5-MKXrLHc6Z83awF3s98-11" value="&lt;font style=&quot;font-size: 38px&quot; color=&quot;#FFFFFF&quot;&gt;C++&lt;/font&gt;" style="text;html=1;strokeColor=none;fillColor=none;align=center;verticalAlign=middle;whiteSpace=wrap;rounded=0;" parent="1" vertex="1">
          <mxGeometry x="-23.78" y="-2292" width="40" height="20" as="geometry" />
        </mxCell>
        <mxCell id="5-MKXrLHc6Z83awF3s98-12" value="" style="rounded=0;whiteSpace=wrap;html=1;fillColor=#333333;" parent="1" vertex="1">
          <mxGeometry x="455" y="-2147" width="120" height="60" as="geometry" />
        </mxCell>
        <mxCell id="5-MKXrLHc6Z83awF3s98-13" value="" style="rounded=0;whiteSpace=wrap;html=1;fillColor=#333333;" parent="1" vertex="1">
          <mxGeometry x="650" y="-2140" width="120" height="60" as="geometry" />
        </mxCell>
      </root>
    </mxGraphModel>
  </diagram>
  <diagram name="Copy of Page-1" id="BWfBqYpp0Ifc2gsKKF_n">
    <mxGraphModel dx="3133" dy="5276" grid="1" gridSize="10" guides="1" tooltips="1" connect="1" arrows="1" fold="1" page="1" pageScale="1" pageWidth="1654" pageHeight="2336" math="0" shadow="0">
      <root>
        <mxCell id="URSVTL4M4KRWPY0PxHd6-0" />
        <mxCell id="URSVTL4M4KRWPY0PxHd6-1" parent="URSVTL4M4KRWPY0PxHd6-0" />
        <mxCell id="URSVTL4M4KRWPY0PxHd6-27" value="" style="rounded=0;whiteSpace=wrap;html=1;strokeColor=#6c8ebf;fillColor=#1e1e1e;" vertex="1" parent="URSVTL4M4KRWPY0PxHd6-1">
          <mxGeometry x="170" y="-1640" width="810" height="260" as="geometry" />
        </mxCell>
        <mxCell id="URSVTL4M4KRWPY0PxHd6-2" value="" style="rounded=0;whiteSpace=wrap;html=1;fillColor=#333333;" vertex="1" parent="URSVTL4M4KRWPY0PxHd6-1">
          <mxGeometry x="-327.5" y="-20" width="717.5" height="310" as="geometry" />
        </mxCell>
        <mxCell id="URSVTL4M4KRWPY0PxHd6-3" value="" style="rounded=0;whiteSpace=wrap;html=1;fillColor=#333333;" vertex="1" parent="URSVTL4M4KRWPY0PxHd6-1">
          <mxGeometry x="-360" y="-1976.5" width="720" height="70" as="geometry" />
        </mxCell>
        <mxCell id="URSVTL4M4KRWPY0PxHd6-4" value="" style="rounded=1;whiteSpace=wrap;html=1;fillColor=#000000;arcSize=2;align=left;" vertex="1" parent="URSVTL4M4KRWPY0PxHd6-1">
          <mxGeometry x="-520" y="-1180" width="500" height="1010" as="geometry" />
        </mxCell>
        <mxCell id="URSVTL4M4KRWPY0PxHd6-5" value="" style="rounded=0;whiteSpace=wrap;html=1;align=left;" vertex="1" parent="URSVTL4M4KRWPY0PxHd6-1">
          <mxGeometry x="-105" y="-1540" width="240" height="60" as="geometry" />
        </mxCell>
        <mxCell id="URSVTL4M4KRWPY0PxHd6-6" value="" style="aspect=fixed;html=1;points=[];align=left;image;fontSize=12;image=img/lib/mscae/VM_Windows_Non_Azure.svg;" vertex="1" parent="URSVTL4M4KRWPY0PxHd6-1">
          <mxGeometry x="-375" y="-1380" width="130.43" height="120" as="geometry" />
        </mxCell>
        <mxCell id="URSVTL4M4KRWPY0PxHd6-7" value="" style="aspect=fixed;html=1;points=[];align=left;image;fontSize=12;image=img/lib/mscae/VM_Linux.svg;" vertex="1" parent="URSVTL4M4KRWPY0PxHd6-1">
          <mxGeometry x="-85" y="-1390" width="141.3" height="130" as="geometry" />
        </mxCell>
        <mxCell id="URSVTL4M4KRWPY0PxHd6-8" value="" style="pointerEvents=1;shadow=0;dashed=0;html=1;strokeColor=none;fillColor=#505050;labelPosition=center;verticalLabelPosition=bottom;verticalAlign=top;outlineConnect=0;align=left;shape=mxgraph.office.devices.mac_client;" vertex="1" parent="URSVTL4M4KRWPY0PxHd6-1">
          <mxGeometry x="202" y="-1370" width="160" height="124" as="geometry" />
        </mxCell>
        <mxCell id="URSVTL4M4KRWPY0PxHd6-9" value="&lt;div style=&quot;font-size: 15px&quot;&gt;&lt;font style=&quot;font-size: 15px&quot; color=&quot;#E1D5E7&quot;&gt;Generators&lt;/font&gt;&lt;/div&gt;&lt;div style=&quot;font-size: 15px&quot;&gt;&lt;font style=&quot;font-size: 15px&quot; color=&quot;#E1D5E7&quot;&gt;&lt;br&gt;&lt;/font&gt;&lt;/div&gt;&lt;div style=&quot;font-size: 15px&quot;&gt;&lt;font style=&quot;font-size: 15px&quot; color=&quot;#E1D5E7&quot;&gt;The following generators are available on this platform (* marks default):&lt;br&gt;* Visual Studio 16 2019&amp;nbsp;&amp;nbsp;&amp;nbsp;&amp;nbsp;&amp;nbsp;&amp;nbsp;&amp;nbsp; = Generates Visual Studio 2019 project files.&lt;br&gt;&amp;nbsp;&amp;nbsp;&amp;nbsp;&amp;nbsp;&amp;nbsp;&amp;nbsp;&amp;nbsp;&amp;nbsp;&amp;nbsp;&amp;nbsp;&amp;nbsp;&amp;nbsp;&amp;nbsp;&amp;nbsp;&amp;nbsp;&amp;nbsp;&amp;nbsp;&amp;nbsp;&amp;nbsp;&amp;nbsp;&amp;nbsp;&amp;nbsp;&amp;nbsp;&amp;nbsp;&amp;nbsp;&amp;nbsp;&amp;nbsp;&amp;nbsp;&amp;nbsp;&amp;nbsp;&amp;nbsp;&amp;nbsp; Use -A option to specify architecture.&lt;br&gt;&amp;nbsp; Visual Studio 15 2017 [arch] = Generates Visual Studio 2017 project files.&lt;br&gt;&amp;nbsp;&amp;nbsp;&amp;nbsp;&amp;nbsp;&amp;nbsp;&amp;nbsp;&amp;nbsp;&amp;nbsp;&amp;nbsp;&amp;nbsp;&amp;nbsp;&amp;nbsp;&amp;nbsp;&amp;nbsp;&amp;nbsp;&amp;nbsp;&amp;nbsp;&amp;nbsp;&amp;nbsp;&amp;nbsp;&amp;nbsp;&amp;nbsp;&amp;nbsp;&amp;nbsp;&amp;nbsp;&amp;nbsp;&amp;nbsp;&amp;nbsp;&amp;nbsp;&amp;nbsp;&amp;nbsp;&amp;nbsp; Optional [arch] can be &quot;Win64&quot; or &quot;ARM&quot;.&lt;br&gt;&amp;nbsp; Visual Studio 14 2015 [arch] = Generates Visual Studio 2015 project files.&lt;br&gt;&amp;nbsp;&amp;nbsp;&amp;nbsp;&amp;nbsp;&amp;nbsp;&amp;nbsp;&amp;nbsp;&amp;nbsp;&amp;nbsp;&amp;nbsp;&amp;nbsp;&amp;nbsp;&amp;nbsp;&amp;nbsp;&amp;nbsp;&amp;nbsp;&amp;nbsp;&amp;nbsp;&amp;nbsp;&amp;nbsp;&amp;nbsp;&amp;nbsp;&amp;nbsp;&amp;nbsp;&amp;nbsp;&amp;nbsp;&amp;nbsp;&amp;nbsp;&amp;nbsp;&amp;nbsp;&amp;nbsp;&amp;nbsp; Optional [arch] can be &quot;Win64&quot; or &quot;ARM&quot;.&lt;br&gt;&amp;nbsp; Visual Studio 12 2013 [arch] = Generates Visual Studio 2013 project files.&lt;br&gt;&amp;nbsp;&amp;nbsp;&amp;nbsp;&amp;nbsp;&amp;nbsp;&amp;nbsp;&amp;nbsp;&amp;nbsp;&amp;nbsp;&amp;nbsp;&amp;nbsp;&amp;nbsp;&amp;nbsp;&amp;nbsp;&amp;nbsp;&amp;nbsp;&amp;nbsp;&amp;nbsp;&amp;nbsp;&amp;nbsp;&amp;nbsp;&amp;nbsp;&amp;nbsp;&amp;nbsp;&amp;nbsp;&amp;nbsp;&amp;nbsp;&amp;nbsp;&amp;nbsp;&amp;nbsp;&amp;nbsp;&amp;nbsp; Optional [arch] can be &quot;Win64&quot; or &quot;ARM&quot;.&lt;br&gt;&amp;nbsp; Visual Studio 11 2012 [arch] = Generates Visual Studio 2012 project files.&lt;br&gt;&amp;nbsp;&amp;nbsp;&amp;nbsp;&amp;nbsp;&amp;nbsp;&amp;nbsp;&amp;nbsp;&amp;nbsp;&amp;nbsp;&amp;nbsp;&amp;nbsp;&amp;nbsp;&amp;nbsp;&amp;nbsp;&amp;nbsp;&amp;nbsp;&amp;nbsp;&amp;nbsp;&amp;nbsp;&amp;nbsp;&amp;nbsp;&amp;nbsp;&amp;nbsp;&amp;nbsp;&amp;nbsp;&amp;nbsp;&amp;nbsp;&amp;nbsp;&amp;nbsp;&amp;nbsp;&amp;nbsp;&amp;nbsp; Optional [arch] can be &quot;Win64&quot; or &quot;ARM&quot;.&lt;br&gt;&amp;nbsp; Visual Studio 10 2010 [arch] = Generates Visual Studio 2010 project files.&lt;br&gt;&amp;nbsp;&amp;nbsp;&amp;nbsp;&amp;nbsp;&amp;nbsp;&amp;nbsp;&amp;nbsp;&amp;nbsp;&amp;nbsp;&amp;nbsp;&amp;nbsp;&amp;nbsp;&amp;nbsp;&amp;nbsp;&amp;nbsp;&amp;nbsp;&amp;nbsp;&amp;nbsp;&amp;nbsp;&amp;nbsp;&amp;nbsp;&amp;nbsp;&amp;nbsp;&amp;nbsp;&amp;nbsp;&amp;nbsp;&amp;nbsp;&amp;nbsp;&amp;nbsp;&amp;nbsp;&amp;nbsp;&amp;nbsp; Optional [arch] can be &quot;Win64&quot; or &quot;IA64&quot;.&lt;br&gt;&amp;nbsp; Visual Studio 9 2008 [arch]&amp;nbsp; = Generates Visual Studio 2008 project files.&lt;br&gt;&amp;nbsp;&amp;nbsp;&amp;nbsp;&amp;nbsp;&amp;nbsp;&amp;nbsp;&amp;nbsp;&amp;nbsp;&amp;nbsp;&amp;nbsp;&amp;nbsp;&amp;nbsp;&amp;nbsp;&amp;nbsp;&amp;nbsp;&amp;nbsp;&amp;nbsp;&amp;nbsp;&amp;nbsp;&amp;nbsp;&amp;nbsp;&amp;nbsp;&amp;nbsp;&amp;nbsp;&amp;nbsp;&amp;nbsp;&amp;nbsp;&amp;nbsp;&amp;nbsp;&amp;nbsp;&amp;nbsp;&amp;nbsp; Optional [arch] can be &quot;Win64&quot; or &quot;IA64&quot;.&lt;br&gt;&amp;nbsp; Borland Makefiles&amp;nbsp;&amp;nbsp;&amp;nbsp;&amp;nbsp;&amp;nbsp;&amp;nbsp;&amp;nbsp;&amp;nbsp;&amp;nbsp;&amp;nbsp;&amp;nbsp; = Generates Borland makefiles.&lt;br&gt;&amp;nbsp; NMake Makefiles&amp;nbsp;&amp;nbsp;&amp;nbsp;&amp;nbsp;&amp;nbsp;&amp;nbsp;&amp;nbsp;&amp;nbsp;&amp;nbsp;&amp;nbsp;&amp;nbsp;&amp;nbsp;&amp;nbsp; = Generates NMake makefiles.&lt;br&gt;&amp;nbsp; NMake Makefiles JOM&amp;nbsp;&amp;nbsp;&amp;nbsp;&amp;nbsp;&amp;nbsp;&amp;nbsp;&amp;nbsp;&amp;nbsp;&amp;nbsp; = Generates JOM makefiles.&lt;br&gt;&amp;nbsp; MSYS Makefiles&amp;nbsp;&amp;nbsp;&amp;nbsp;&amp;nbsp;&amp;nbsp;&amp;nbsp;&amp;nbsp;&amp;nbsp;&amp;nbsp;&amp;nbsp;&amp;nbsp;&amp;nbsp;&amp;nbsp;&amp;nbsp; = Generates MSYS makefiles.&lt;br&gt;&amp;nbsp; MinGW Makefiles&amp;nbsp;&amp;nbsp;&amp;nbsp;&amp;nbsp;&amp;nbsp;&amp;nbsp;&amp;nbsp;&amp;nbsp;&amp;nbsp;&amp;nbsp;&amp;nbsp;&amp;nbsp;&amp;nbsp; = Generates a make file for use with&lt;br&gt;&amp;nbsp;&amp;nbsp;&amp;nbsp;&amp;nbsp;&amp;nbsp;&amp;nbsp;&amp;nbsp;&amp;nbsp;&amp;nbsp;&amp;nbsp;&amp;nbsp;&amp;nbsp;&amp;nbsp;&amp;nbsp;&amp;nbsp;&amp;nbsp;&amp;nbsp;&amp;nbsp;&amp;nbsp;&amp;nbsp;&amp;nbsp;&amp;nbsp;&amp;nbsp;&amp;nbsp;&amp;nbsp;&amp;nbsp;&amp;nbsp;&amp;nbsp;&amp;nbsp;&amp;nbsp;&amp;nbsp;&amp;nbsp; mingw32-make.&lt;br&gt;&amp;nbsp; Green Hills MULTI&amp;nbsp;&amp;nbsp;&amp;nbsp;&amp;nbsp;&amp;nbsp;&amp;nbsp;&amp;nbsp;&amp;nbsp;&amp;nbsp;&amp;nbsp;&amp;nbsp; = Generates Green Hills MULTI files&lt;br&gt;&amp;nbsp;&amp;nbsp;&amp;nbsp;&amp;nbsp;&amp;nbsp;&amp;nbsp;&amp;nbsp;&amp;nbsp;&amp;nbsp;&amp;nbsp;&amp;nbsp;&amp;nbsp;&amp;nbsp;&amp;nbsp;&amp;nbsp;&amp;nbsp;&amp;nbsp;&amp;nbsp;&amp;nbsp;&amp;nbsp;&amp;nbsp;&amp;nbsp;&amp;nbsp;&amp;nbsp;&amp;nbsp;&amp;nbsp;&amp;nbsp;&amp;nbsp;&amp;nbsp;&amp;nbsp;&amp;nbsp;&amp;nbsp; (experimental, work-in-progress).&lt;br&gt;&amp;nbsp; Unix Makefiles&amp;nbsp;&amp;nbsp;&amp;nbsp;&amp;nbsp;&amp;nbsp;&amp;nbsp;&amp;nbsp;&amp;nbsp;&amp;nbsp;&amp;nbsp;&amp;nbsp;&amp;nbsp;&amp;nbsp;&amp;nbsp; = Generates standard UNIX makefiles.&lt;br&gt;&amp;nbsp; Ninja&amp;nbsp;&amp;nbsp;&amp;nbsp;&amp;nbsp;&amp;nbsp;&amp;nbsp;&amp;nbsp;&amp;nbsp;&amp;nbsp;&amp;nbsp;&amp;nbsp;&amp;nbsp;&amp;nbsp;&amp;nbsp;&amp;nbsp;&amp;nbsp;&amp;nbsp;&amp;nbsp;&amp;nbsp;&amp;nbsp;&amp;nbsp;&amp;nbsp;&amp;nbsp; = Generates build.ninja files.&lt;br&gt;&amp;nbsp; Ninja Multi-Config&amp;nbsp;&amp;nbsp;&amp;nbsp;&amp;nbsp;&amp;nbsp;&amp;nbsp;&amp;nbsp;&amp;nbsp;&amp;nbsp;&amp;nbsp; = Generates build-&amp;lt;Config&amp;gt;.ninja files.&lt;br&gt;&amp;nbsp; Watcom WMake&amp;nbsp;&amp;nbsp;&amp;nbsp;&amp;nbsp;&amp;nbsp;&amp;nbsp;&amp;nbsp;&amp;nbsp;&amp;nbsp;&amp;nbsp;&amp;nbsp;&amp;nbsp;&amp;nbsp;&amp;nbsp;&amp;nbsp;&amp;nbsp; = Generates Watcom WMake makefiles.&lt;br&gt;&amp;nbsp; CodeBlocks - MinGW Makefiles = Generates CodeBlocks project files.&lt;br&gt;&amp;nbsp; CodeBlocks - NMake Makefiles = Generates CodeBlocks project files.&lt;br&gt;&amp;nbsp; CodeBlocks - NMake Makefiles JOM&lt;br&gt;&amp;nbsp;&amp;nbsp;&amp;nbsp;&amp;nbsp;&amp;nbsp;&amp;nbsp;&amp;nbsp;&amp;nbsp;&amp;nbsp;&amp;nbsp;&amp;nbsp;&amp;nbsp;&amp;nbsp;&amp;nbsp;&amp;nbsp;&amp;nbsp;&amp;nbsp;&amp;nbsp;&amp;nbsp;&amp;nbsp;&amp;nbsp;&amp;nbsp;&amp;nbsp;&amp;nbsp;&amp;nbsp;&amp;nbsp;&amp;nbsp;&amp;nbsp;&amp;nbsp;&amp;nbsp; = Generates CodeBlocks project files.&lt;br&gt;&amp;nbsp; CodeBlocks - Ninja&amp;nbsp;&amp;nbsp;&amp;nbsp;&amp;nbsp;&amp;nbsp;&amp;nbsp;&amp;nbsp;&amp;nbsp;&amp;nbsp;&amp;nbsp; = Generates CodeBlocks project files.&lt;br&gt;&amp;nbsp; CodeBlocks - Unix Makefiles&amp;nbsp; = Generates CodeBlocks project files.&lt;br&gt;&amp;nbsp; CodeLite - MinGW Makefiles&amp;nbsp;&amp;nbsp; = Generates CodeLite project files.&lt;br&gt;&amp;nbsp; CodeLite - NMake Makefiles&amp;nbsp;&amp;nbsp; = Generates CodeLite project files.&lt;br&gt;&amp;nbsp; CodeLite - Ninja&amp;nbsp;&amp;nbsp;&amp;nbsp;&amp;nbsp;&amp;nbsp;&amp;nbsp;&amp;nbsp;&amp;nbsp;&amp;nbsp;&amp;nbsp;&amp;nbsp;&amp;nbsp; = Generates CodeLite project files.&lt;br&gt;&amp;nbsp; CodeLite - Unix Makefiles&amp;nbsp;&amp;nbsp;&amp;nbsp; = Generates CodeLite project files.&lt;br&gt;&amp;nbsp; Eclipse CDT4 - NMake Makefiles&lt;br&gt;&amp;nbsp;&amp;nbsp;&amp;nbsp;&amp;nbsp;&amp;nbsp;&amp;nbsp;&amp;nbsp;&amp;nbsp;&amp;nbsp;&amp;nbsp;&amp;nbsp;&amp;nbsp;&amp;nbsp;&amp;nbsp;&amp;nbsp;&amp;nbsp;&amp;nbsp;&amp;nbsp;&amp;nbsp;&amp;nbsp;&amp;nbsp;&amp;nbsp;&amp;nbsp;&amp;nbsp;&amp;nbsp;&amp;nbsp;&amp;nbsp;&amp;nbsp;&amp;nbsp;&amp;nbsp; = Generates Eclipse CDT 4.0 project files.&lt;/font&gt;&lt;/div&gt;" style="text;html=1;strokeColor=none;fillColor=none;align=left;verticalAlign=middle;whiteSpace=wrap;rounded=0;" vertex="1" parent="URSVTL4M4KRWPY0PxHd6-1">
          <mxGeometry x="-500" y="-1000" width="450" height="630" as="geometry" />
        </mxCell>
        <mxCell id="URSVTL4M4KRWPY0PxHd6-10" value="" style="ellipse;whiteSpace=wrap;html=1;aspect=fixed;fillColor=#B3B3B3;align=left;" vertex="1" parent="URSVTL4M4KRWPY0PxHd6-1">
          <mxGeometry x="-435" y="-1600" width="150" height="150" as="geometry" />
        </mxCell>
        <mxCell id="URSVTL4M4KRWPY0PxHd6-11" value="" style="shape=image;html=1;verticalAlign=top;verticalLabelPosition=bottom;labelBackgroundColor=#ffffff;imageAspect=0;aspect=fixed;image=https://cdn4.iconfinder.com/data/icons/logos-brands-5/24/cmake-128.png;fillColor=#333333;align=left;" vertex="1" parent="URSVTL4M4KRWPY0PxHd6-1">
          <mxGeometry x="-399" y="-1569" width="78" height="78" as="geometry" />
        </mxCell>
        <mxCell id="URSVTL4M4KRWPY0PxHd6-12" value="" style="rounded=1;whiteSpace=wrap;html=1;fillColor=#000000;arcSize=2;align=left;" vertex="1" parent="URSVTL4M4KRWPY0PxHd6-1">
          <mxGeometry x="-15.21" y="-1170" width="540" height="600" as="geometry" />
        </mxCell>
        <mxCell id="URSVTL4M4KRWPY0PxHd6-13" value="&lt;font style=&quot;font-size: 15px&quot; color=&quot;#FFFFFF&quot;&gt;Generators&lt;br&gt;&lt;br&gt;The following generators are available on this platform (* marks default):&lt;br&gt;* Unix Makefiles&amp;nbsp;&amp;nbsp;&amp;nbsp;&amp;nbsp;&amp;nbsp;&amp;nbsp;&amp;nbsp;&amp;nbsp;&amp;nbsp;&amp;nbsp;&amp;nbsp;&amp;nbsp;&amp;nbsp;&amp;nbsp; = Generates standard UNIX makefiles.&lt;br&gt;&amp;nbsp; Green Hills MULTI&amp;nbsp;&amp;nbsp;&amp;nbsp;&amp;nbsp;&amp;nbsp;&amp;nbsp;&amp;nbsp;&amp;nbsp;&amp;nbsp;&amp;nbsp;&amp;nbsp; = Generates Green Hills MULTI files&lt;br&gt;&amp;nbsp;&amp;nbsp;&amp;nbsp;&amp;nbsp;&amp;nbsp;&amp;nbsp;&amp;nbsp;&amp;nbsp;&amp;nbsp;&amp;nbsp;&amp;nbsp;&amp;nbsp;&amp;nbsp;&amp;nbsp;&amp;nbsp;&amp;nbsp;&amp;nbsp;&amp;nbsp;&amp;nbsp;&amp;nbsp;&amp;nbsp;&amp;nbsp;&amp;nbsp;&amp;nbsp;&amp;nbsp;&amp;nbsp;&amp;nbsp;&amp;nbsp;&amp;nbsp;&amp;nbsp;&amp;nbsp;&amp;nbsp; (experimental, work-in-progress).&lt;br&gt;&amp;nbsp; Ninja&amp;nbsp;&amp;nbsp;&amp;nbsp;&amp;nbsp;&amp;nbsp;&amp;nbsp;&amp;nbsp;&amp;nbsp;&amp;nbsp;&amp;nbsp;&amp;nbsp;&amp;nbsp;&amp;nbsp;&amp;nbsp;&amp;nbsp;&amp;nbsp;&amp;nbsp;&amp;nbsp;&amp;nbsp;&amp;nbsp;&amp;nbsp;&amp;nbsp;&amp;nbsp; = Generates build.ninja files.&lt;br&gt;&amp;nbsp; Watcom WMake&amp;nbsp;&amp;nbsp;&amp;nbsp;&amp;nbsp;&amp;nbsp;&amp;nbsp;&amp;nbsp;&amp;nbsp;&amp;nbsp;&amp;nbsp;&amp;nbsp;&amp;nbsp;&amp;nbsp;&amp;nbsp;&amp;nbsp;&amp;nbsp; = Generates Watcom WMake makefiles.&lt;br&gt;&amp;nbsp; CodeBlocks - Ninja&amp;nbsp;&amp;nbsp;&amp;nbsp;&amp;nbsp;&amp;nbsp;&amp;nbsp;&amp;nbsp;&amp;nbsp;&amp;nbsp;&amp;nbsp; = Generates CodeBlocks project files.&lt;br&gt;&amp;nbsp; CodeBlocks - Unix Makefiles&amp;nbsp; = Generates CodeBlocks project files.&lt;br&gt;&amp;nbsp; CodeLite - Ninja&amp;nbsp;&amp;nbsp;&amp;nbsp;&amp;nbsp;&amp;nbsp;&amp;nbsp;&amp;nbsp;&amp;nbsp;&amp;nbsp;&amp;nbsp;&amp;nbsp;&amp;nbsp; = Generates CodeLite project files.&lt;br&gt;&amp;nbsp; CodeLite - Unix Makefiles&amp;nbsp;&amp;nbsp;&amp;nbsp; = Generates CodeLite project files.&lt;br&gt;&amp;nbsp; Sublime Text 2 - Ninja&amp;nbsp;&amp;nbsp;&amp;nbsp;&amp;nbsp;&amp;nbsp;&amp;nbsp; = Generates Sublime Text 2 project files.&lt;br&gt;&amp;nbsp; Sublime Text 2 - Unix Makefiles&lt;br&gt;&amp;nbsp;&amp;nbsp;&amp;nbsp;&amp;nbsp;&amp;nbsp;&amp;nbsp;&amp;nbsp;&amp;nbsp;&amp;nbsp;&amp;nbsp;&amp;nbsp;&amp;nbsp;&amp;nbsp;&amp;nbsp;&amp;nbsp;&amp;nbsp;&amp;nbsp;&amp;nbsp;&amp;nbsp;&amp;nbsp;&amp;nbsp;&amp;nbsp;&amp;nbsp;&amp;nbsp;&amp;nbsp;&amp;nbsp;&amp;nbsp;&amp;nbsp;&amp;nbsp;&amp;nbsp; = Generates Sublime Text 2 project files.&lt;br&gt;&amp;nbsp; Kate - Ninja&amp;nbsp;&amp;nbsp;&amp;nbsp;&amp;nbsp;&amp;nbsp;&amp;nbsp;&amp;nbsp;&amp;nbsp;&amp;nbsp;&amp;nbsp;&amp;nbsp;&amp;nbsp;&amp;nbsp;&amp;nbsp;&amp;nbsp;&amp;nbsp; = Generates Kate project files.&lt;br&gt;&amp;nbsp; Kate - Unix Makefiles&amp;nbsp;&amp;nbsp;&amp;nbsp;&amp;nbsp;&amp;nbsp;&amp;nbsp;&amp;nbsp; = Generates Kate project files.&lt;br&gt;&amp;nbsp; Eclipse CDT4 - Ninja&amp;nbsp;&amp;nbsp;&amp;nbsp;&amp;nbsp;&amp;nbsp;&amp;nbsp;&amp;nbsp;&amp;nbsp; = Generates Eclipse CDT 4.0 project files.&lt;br&gt;&amp;nbsp; Eclipse CDT4 - Unix Makefiles= Generates Eclipse CDT 4.0 project files.&lt;/font&gt;" style="text;html=1;strokeColor=none;fillColor=none;align=left;verticalAlign=middle;whiteSpace=wrap;rounded=0;" vertex="1" parent="URSVTL4M4KRWPY0PxHd6-1">
          <mxGeometry x="56.299999999999955" y="-1000" width="518.7" height="20" as="geometry" />
        </mxCell>
        <mxCell id="URSVTL4M4KRWPY0PxHd6-14" value="&lt;font style=&quot;font-size: 21px&quot;&gt;CMakeLists.txt&lt;/font&gt;" style="text;html=1;strokeColor=none;fillColor=none;align=center;verticalAlign=middle;whiteSpace=wrap;rounded=0;" vertex="1" parent="URSVTL4M4KRWPY0PxHd6-1">
          <mxGeometry x="-50" y="-1515" width="130" height="10" as="geometry" />
        </mxCell>
        <mxCell id="URSVTL4M4KRWPY0PxHd6-15" value="&lt;div align=&quot;left&quot;&gt;&lt;ul style=&quot;font-size: 21px&quot;&gt;&lt;li&gt;&lt;font style=&quot;font-size: 21px&quot; color=&quot;#C4C4C4&quot;&gt;Concepts&lt;/font&gt;&lt;/li&gt;&lt;li&gt;&lt;font style=&quot;font-size: 21px&quot; color=&quot;#C4C4C4&quot;&gt;Compilation on terminal&lt;/font&gt;&lt;/li&gt;&lt;li&gt;&lt;div&gt;&lt;font style=&quot;font-size: 21px&quot; color=&quot;#C4C4C4&quot;&gt;Scripts (bash,python,batch)&lt;/font&gt;&lt;/div&gt;&lt;/li&gt;&lt;li&gt;&lt;font style=&quot;font-size: 21px&quot; color=&quot;#C4C4C4&quot;&gt;Build systems (msbuild, makefiles, XCode Generator,...)&lt;/font&gt;&lt;/li&gt;&lt;li&gt;&lt;font style=&quot;font-size: 21px&quot; color=&quot;#C4C4C4&quot;&gt;CMake is a Meta Build System&lt;/font&gt;&lt;/li&gt;&lt;li&gt;&lt;font style=&quot;font-size: 21px&quot; color=&quot;#C4C4C4&quot;&gt;Installing CMake&lt;/font&gt;&lt;/li&gt;&lt;li&gt;&lt;font style=&quot;font-size: 21px&quot; color=&quot;#C4C4C4&quot;&gt;Goals &lt;br&gt;&lt;/font&gt;&lt;/li&gt;&lt;li&gt;&lt;font style=&quot;font-size: 21px&quot; color=&quot;#C4C4C4&quot;&gt;Cross platform app dev with C++ and CMake&lt;/font&gt;&lt;/li&gt;&lt;li&gt;&lt;font style=&quot;font-size: 21px&quot; color=&quot;#C4C4C4&quot;&gt;Tools : VSCode, on Windows and Linux&lt;br&gt;&lt;/font&gt;&lt;/li&gt;&lt;/ul&gt;&lt;font style=&quot;font-size: 21px&quot; color=&quot;#C4C4C4&quot;&gt;&lt;br&gt;&lt;/font&gt;&lt;/div&gt;" style="text;html=1;strokeColor=none;fillColor=none;align=left;verticalAlign=middle;whiteSpace=wrap;rounded=0;" vertex="1" parent="URSVTL4M4KRWPY0PxHd6-1">
          <mxGeometry x="-289.99999999999994" y="30" width="625" height="240" as="geometry" />
        </mxCell>
        <mxCell id="URSVTL4M4KRWPY0PxHd6-16" value="" style="verticalLabelPosition=bottom;html=1;verticalAlign=top;align=center;strokeColor=none;fillColor=#00BEF2;shape=mxgraph.azure.visual_studio_online;" vertex="1" parent="URSVTL4M4KRWPY0PxHd6-1">
          <mxGeometry x="-318.78" y="-2172" width="140" height="110" as="geometry" />
        </mxCell>
        <mxCell id="URSVTL4M4KRWPY0PxHd6-17" value="" style="shadow=0;dashed=0;html=1;strokeColor=none;fillColor=#EF8F21;labelPosition=center;verticalLabelPosition=bottom;verticalAlign=top;align=center;outlineConnect=0;shape=mxgraph.veeam.linux;" vertex="1" parent="URSVTL4M4KRWPY0PxHd6-1">
          <mxGeometry x="-61.78" y="-2175.5" width="130" height="117" as="geometry" />
        </mxCell>
        <mxCell id="URSVTL4M4KRWPY0PxHd6-18" value="" style="shape=image;html=1;verticalAlign=top;verticalLabelPosition=bottom;labelBackgroundColor=#ffffff;imageAspect=0;aspect=fixed;image=https://cdn2.iconfinder.com/data/icons/isuite/PNG/XCode.png" vertex="1" parent="URSVTL4M4KRWPY0PxHd6-1">
          <mxGeometry x="190.78999999999994" y="-2190" width="128" height="128" as="geometry" />
        </mxCell>
        <mxCell id="URSVTL4M4KRWPY0PxHd6-19" value="&lt;font style=&quot;font-size: 22px&quot; color=&quot;#FFFFFF&quot;&gt;cl.exe /Zi /std:c++latest /EHsc /Fe: rooster.exe main.cpp&amp;nbsp;&amp;nbsp; &lt;/font&gt;" style="text;html=1;strokeColor=none;fillColor=none;align=center;verticalAlign=middle;whiteSpace=wrap;rounded=0;" vertex="1" parent="URSVTL4M4KRWPY0PxHd6-1">
          <mxGeometry x="-327.5" y="-1951.5" width="655" height="20" as="geometry" />
        </mxCell>
        <mxCell id="URSVTL4M4KRWPY0PxHd6-20" value="" style="rounded=0;whiteSpace=wrap;html=1;fillColor=#333333;" vertex="1" parent="URSVTL4M4KRWPY0PxHd6-1">
          <mxGeometry x="-352.5" y="-1836.5" width="720" height="70" as="geometry" />
        </mxCell>
        <mxCell id="URSVTL4M4KRWPY0PxHd6-21" value="&lt;font style=&quot;font-size: 22px&quot; color=&quot;#FFFFFF&quot;&gt;g++ -g -std=c++20 main.cpp -o rooster&lt;/font&gt;" style="text;html=1;strokeColor=none;fillColor=none;align=center;verticalAlign=middle;whiteSpace=wrap;rounded=0;" vertex="1" parent="URSVTL4M4KRWPY0PxHd6-1">
          <mxGeometry x="-284.93000000000006" y="-1811.5" width="505" height="20" as="geometry" />
        </mxCell>
        <mxCell id="URSVTL4M4KRWPY0PxHd6-22" value="" style="ellipse;whiteSpace=wrap;html=1;aspect=fixed;fillColor=#333333;" vertex="1" parent="URSVTL4M4KRWPY0PxHd6-1">
          <mxGeometry x="-61.78" y="-2340" width="116" height="116" as="geometry" />
        </mxCell>
        <mxCell id="URSVTL4M4KRWPY0PxHd6-23" value="&lt;font style=&quot;font-size: 38px&quot; color=&quot;#FFFFFF&quot;&gt;C++&lt;/font&gt;" style="text;html=1;strokeColor=none;fillColor=none;align=center;verticalAlign=middle;whiteSpace=wrap;rounded=0;" vertex="1" parent="URSVTL4M4KRWPY0PxHd6-1">
          <mxGeometry x="-23.78" y="-2292" width="40" height="20" as="geometry" />
        </mxCell>
        <mxCell id="URSVTL4M4KRWPY0PxHd6-24" value="" style="rounded=0;whiteSpace=wrap;html=1;fillColor=#333333;" vertex="1" parent="URSVTL4M4KRWPY0PxHd6-1">
          <mxGeometry x="455" y="-2147" width="120" height="60" as="geometry" />
        </mxCell>
        <mxCell id="URSVTL4M4KRWPY0PxHd6-25" value="" style="rounded=0;whiteSpace=wrap;html=1;fillColor=#333333;" vertex="1" parent="URSVTL4M4KRWPY0PxHd6-1">
          <mxGeometry x="650" y="-2140" width="120" height="60" as="geometry" />
        </mxCell>
        <mxCell id="URSVTL4M4KRWPY0PxHd6-26" value="&lt;div style=&quot;color: rgb(212 , 212 , 212) ; background-color: rgb(30 , 30 , 30) ; font-family: &amp;#34;consolas&amp;#34; , &amp;#34;courier new&amp;#34; , monospace ; font-weight: normal ; font-size: 24px ; line-height: 32px&quot; align=&quot;left&quot;&gt;&lt;div&gt;&lt;span style=&quot;color: #569cd6&quot;&gt;cmake_minimum_required&lt;/span&gt;&lt;span style=&quot;color: #d4d4d4&quot;&gt;(VERSION&amp;nbsp;3.5)&lt;/span&gt;&lt;/div&gt;&lt;div&gt;&lt;span style=&quot;color: #569cd6&quot;&gt;project&lt;/span&gt;&lt;span style=&quot;color: #d4d4d4&quot;&gt;(HelloApp&lt;/span&gt;&lt;/div&gt;&lt;div&gt;&lt;span style=&quot;color: #d4d4d4&quot;&gt;&amp;nbsp;&amp;nbsp;&amp;nbsp;&amp;nbsp;&amp;nbsp;&amp;nbsp;&amp;nbsp;&amp;nbsp;VERSION&amp;nbsp;0.0.1&lt;/span&gt;&lt;/div&gt;&lt;div&gt;&lt;span style=&quot;color: #d4d4d4&quot;&gt;&amp;nbsp;&amp;nbsp;&amp;nbsp;&amp;nbsp;&amp;nbsp;&amp;nbsp;&amp;nbsp;&amp;nbsp;DESCRIPTION&amp;nbsp;&lt;/span&gt;&lt;span style=&quot;color: #ce9178&quot;&gt;&quot;The&amp;nbsp;leading&amp;nbsp;Hello&amp;nbsp;World&amp;nbsp;App&quot;&lt;/span&gt;&lt;/div&gt;&lt;div&gt;&lt;span style=&quot;color: #d4d4d4&quot;&gt;&amp;nbsp;&amp;nbsp;&amp;nbsp;&amp;nbsp;&amp;nbsp;&amp;nbsp;&amp;nbsp;&amp;nbsp;LANGUAGES&amp;nbsp;CXX)&amp;nbsp;&amp;nbsp;&lt;/span&gt;&lt;/div&gt;&lt;div&gt;&lt;span style=&quot;color: #569cd6&quot;&gt;add_executable&lt;/span&gt;&lt;span style=&quot;color: #d4d4d4&quot;&gt;(HelloAppBinary&amp;nbsp;main.cpp)&lt;/span&gt;&lt;/div&gt;&lt;div&gt;&lt;span style=&quot;color: #569cd6&quot;&gt;target_compile_features&lt;/span&gt;&lt;span style=&quot;color: #d4d4d4&quot;&gt;(HelloAppBinary&amp;nbsp;PRIVATE&amp;nbsp;cxx_std_20)&lt;/span&gt;&lt;/div&gt;&lt;/div&gt;" style="text;html=1;strokeColor=none;fillColor=none;align=left;verticalAlign=middle;whiteSpace=wrap;rounded=0;" vertex="1" parent="URSVTL4M4KRWPY0PxHd6-1">
          <mxGeometry x="190.79" y="-1627.5" width="780" height="235" as="geometry" />
        </mxCell>
      </root>
    </mxGraphModel>
  </diagram>
</mxfile>
